<svg width="44" height="36" viewBox="0 0 44 36" fill="none" xmlns="http://www.w3.org/2000/svg">
<path d="M26 1.67361C26 0.707108 26.7859 -0.085318 27.7479 0.0073877C36.8689 0.886312 44 8.57217 44 17.9236C43.9999 27.2749 36.8688 34.9609 27.7479 35.8398C26.7859 35.9325 26 35.1401 26 34.1736V33.5873C26 32.9446 25.479 32.4236 24.8363 32.4236C24.3055 32.4236 23.8663 32.8126 23.5231 33.2175C23.1569 33.6494 22.6109 33.9236 22 33.9236C21.3891 33.9236 20.8431 33.6494 20.4769 33.2175C20.1337 32.8126 19.6945 32.4236 19.1637 32.4236C18.521 32.4236 18 32.9446 18 33.5873V34.1736C18 35.1401 17.2141 35.9325 16.2521 35.8398C7.13122 34.9609 0.000112487 27.2749 0 17.9236C0 8.57217 7.13115 0.886312 16.2521 0.00738774C17.2141 -0.085318 18 0.707108 18 1.67361V2.26002C18 2.90265 18.521 3.42361 19.1636 3.42361C19.6944 3.42361 20.1336 3.03451 20.4769 2.62961C20.8431 2.19773 21.389 1.92361 22 1.92361C22.611 1.92361 23.1569 2.19773 23.5231 2.62961C23.8664 3.03451 24.3056 3.42361 24.8364 3.42361C25.479 3.42361 26 2.90265 26 2.26002V1.67361ZM22 30.9236C21.4477 30.9236 21 31.3713 21 31.9236C21.0001 32.4758 21.4478 32.9236 22 32.9236C22.5522 32.9236 22.9999 32.4758 23 31.9236C23 31.3713 22.5523 30.9236 22 30.9236ZM28.8618 8.34162C28.2437 8.15735 27.583 8.36034 27.1304 8.81989C26.0965 9.86979 25.3366 10.8089 24.7803 11.825C23.9538 13.3345 23.5128 15.134 23.5 17.9304C23.5108 20.7144 23.2284 22.9958 22.1934 25.1277C21.3575 26.8492 20.0805 28.368 18.2871 29.9575C18.106 30.118 18 30.3479 18 30.59C18 31.0504 18.3732 31.4236 18.8336 31.4236H19.1636C19.6944 31.4236 20.1336 31.0345 20.4769 30.6296C20.8431 30.1977 21.389 29.9236 22 29.9236C22.611 29.9236 23.1569 30.1977 23.5231 30.6296C23.8664 31.0345 24.3056 31.4236 24.8364 31.4236C25.479 31.4236 26 30.9027 26 30.26V29.6736C26 28.7071 26.79 27.9396 27.7419 27.7724C32.4343 26.9481 35.9999 22.8522 36 17.9236C36 13.3955 32.9899 9.57231 28.8618 8.34162ZM18 6.17361C18 7.14011 17.21 7.90758 16.2581 8.07479C11.5656 8.89905 8 12.9949 8 17.9236C8.0001 22.51 11.0883 26.3724 15.2984 27.5509C15.8851 27.7151 16.5088 27.5349 16.9492 27.1139C18.181 25.9363 18.9727 24.8911 19.4941 23.8172C20.2395 22.2819 20.5109 20.5299 20.5 17.9295V17.9168L20.5088 17.3396C20.5795 14.501 21.0841 12.3302 22.1494 10.3845C23.0223 8.79031 24.2348 7.42361 25.7146 6.00287C25.896 5.82873 26 5.58872 26 5.33728C26 4.83267 25.5909 4.42361 25.0863 4.42361H24.8363C24.3055 4.42361 23.8663 4.81259 23.5231 5.21746C23.1569 5.64937 22.6109 5.92361 22 5.92361C21.3891 5.92361 20.8431 5.64937 20.4769 5.21746C20.1337 4.81259 19.6945 4.42361 19.1637 4.42361C18.521 4.42361 18 4.94461 18 5.58731V6.17361ZM22 2.92361C21.4477 2.92361 21 3.37132 21 3.92361C21.0001 4.47579 21.4478 4.92361 22 4.92361C22.5522 4.92361 22.9999 4.47579 23 3.92361C23 3.37132 22.5523 2.92361 22 2.92361Z" fill="#2EBCFE"/>
</svg>
